<?xml version="1.0" encoding="UTF-8" standalone="no"?>
<svg
        width="512px"
        height="512px"
        viewBox="0 0 128 128"
        version="1.1"
        xmlns="http://www.w3.org/2000/svg"
        xmlns:sim2d="mailto:brona.ruzicka@gmail.com?subject=sim2d"

>
    <g>
        <path
                fill="blue"
                sim2d:refractiveIndex="1.0"
                sim2d:reflectivity="0.5"
                d="M 45,66 C 44,49 49,41 61,41 74,41 78,39 86,47 95,54 94,73 83,78 72,81 46,77 45,66 Z"
        />
        <path
                fill="red"
                sim2d:refractiveIndex="1.2"
                sim2d:reflectivity="0"
                sim2d:somethingElse=""
                d="M 81,58 C 92,38 105,37 114,40 123,43 128,74 119,83 110,91 102,94 90,86 78,80 78,65 81,58 Z"
        />

        <path
                fill="cyan"
                sim2d:refractiveIndex="1.0"
                sim2d:reflectivity="0.5"
                d="M 45,66 L 61,41 86,47 83,78 45,66 Z"
        />
        <path
                fill="orange"
                sim2d:refractiveIndex="1.2"
                sim2d:reflectivity="0"
                sim2d:somethingElse=""
                d="M 81,58 L 114,40 119,83 90,86 81,58 Z"
        />
    </g>
</svg>

